<?xml version="1.0" encoding="utf-8"?>
<!-- Generator: Adobe Illustrator 16.0.0, SVG Export Plug-In . SVG Version: 6.00 Build 0)  -->
<!DOCTYPE svg PUBLIC "-//W3C//DTD SVG 1.1//EN" "http://www.w3.org/Graphics/SVG/1.1/DTD/svg11.dtd">
<svg version="1.1" id="Layer_1" xmlns="http://www.w3.org/2000/svg" xmlns:xlink="http://www.w3.org/1999/xlink" x="0px" y="0px"
	 width="62.667px" height="62.667px" viewBox="0 0 62.667 62.667" enable-background="new 0 0 62.667 62.667" xml:space="preserve">
<polygon fill="#FFFFFF" points="38.708,42.254 38.708,35.17 31.292,42.799 23.916,35.17 23.916,42.254 31.212,48.375 31.292,48.295 
	31.374,48.375 "/>
<g>
	<path fill="#FFFFFF" d="M31.333,62.667C14.056,62.667,0,48.611,0,31.333S14.056,0,31.333,0C48.61,0,62.667,14.056,62.667,31.333
		S48.61,62.667,31.333,62.667z M31.333,4C16.262,4,4,16.262,4,31.333c0,15.071,12.262,27.333,27.333,27.333
		c15.071,0,27.333-12.262,27.333-27.333C58.667,16.262,46.405,4,31.333,4z"/>
</g>
<rect x="29.5" y="13.833" fill="#FFFFFF" width="3.333" height="29.667"/>
</svg>
