<?xml version="1.0" encoding="utf-8"?>
<!-- Generator: Adobe Illustrator 16.0.0, SVG Export Plug-In . SVG Version: 6.00 Build 0)  -->
<!DOCTYPE svg PUBLIC "-//W3C//DTD SVG 1.1//EN" "http://www.w3.org/Graphics/SVG/1.1/DTD/svg11.dtd">
<svg version="1.1" id="Слой_1" xmlns="http://www.w3.org/2000/svg" xmlns:xlink="http://www.w3.org/1999/xlink" x="0px" y="0px"
	 width="526px" height="524px" viewBox="0 0 526 524" enable-background="new 0 0 526 524" xml:space="preserve">
<g>
	<path fill="#000907" d="M425.471,455.284l-3.577,1.979C422.1,457.438,423.053,456.995,425.471,455.284z"/>
	<path fill="#000907" d="M335.011,16.939c0.318,0.041,0.675,0.086,0.964,0.119C335.299,16.933,335.084,16.917,335.011,16.939z"/>
	<path fill="#000907" d="M465.525,415.393l-0.363-0.14C465.192,415.402,465.307,415.457,465.525,415.393z"/>
	<path fill="#000907" d="M496.999,355.335c0.017-0.021,0.024-0.033,0.02-0.035C497.012,355.312,497.006,355.323,496.999,355.335z"/>
	<polygon fill="#000907" points="20.246,321.259 20.242,321.249 19.05,319.935 	"/>
	<path fill="#000907" d="M514.424,233.477c-0.091-3.26-0.186-6.845-0.282-10.771c-0.163-3.987-0.341-8.322-0.535-13.024
		c-0.517-4.673-1.39-9.685-2.21-15.151l0.723,1.03c-2.255-12.96-6.43-22.889-9.65-32.002c-3.758-8.904-8.347-16.356-13.137-23.963
		c0.487-1.874-2.254-6.523-5.396-11.388c-3.219-4.826-6.521-10.052-8.175-12.631l0.528,0.34
		c-5.737-5.723-9.985-12.767-14.933-19.265c-5.19-6.263-10.069-12.873-16.267-17.557c0.421,0.236,1.104-0.011,2.534,1.122
		c-3.808-3.528-8.363-7.157-11.843-10.415c-3.978-3.594-6.779-6.553-6.69-7.329c-5.438-3.998-11.403-8.387-17.518-12.888
		c-6.362-4.137-13.121-8.003-19.523-11.836c-6.497-3.665-13.221-6.28-19.014-8.877c-5.772-2.7-11.261-3.998-15.499-4.899
		l1.259-0.011c-4.896-0.875-7.866-1.891-10.952-3.063c-1.551-0.568-3.104-1.252-4.973-1.825c-1.896-0.477-4.071-0.963-6.768-1.432
		c-0.519-0.351-1.238-0.647-1.096-0.702c-2.693-0.251-5.896-0.838-9.346-1.602c-3.445-0.771-7.104-1.8-10.826-2.243
		c-7.374-1.19-14.503-2.454-18.779-2.732l-0.426-1.142c0,0-1.309-0.243-3.296-0.264c-1.985-0.081-4.627-0.185-7.271-0.29
		c-5.282-0.203-10.567-0.407-10.567-0.407l7.878,0.625c-1.445,1.395-5.372,0.736-10.915-0.128
		c-5.534-0.885-12.74-0.837-20.335,0.376c-3.574,0.204-7.195,0.353-10.697,1.581c-3.521,1.071-7.013,2.34-10.494,3.574
		c-3.482,1.233-6.95,2.431-10.463,3.374c-3.463,1.183-6.932,2.298-10.561,2.833c-6.422,3.066,5.419-3.695-4.45-0.067
		c-0.729-1.391,4.515-2.149,1.581-2.654c-4.905,1.72-9.195,2.145-13.61,3.306c-4.386,1.227-9.088,2.614-14.924,5.3l-0.924-0.928
		c-1.871,0.978-3.743,1.857-5.606,2.657c-1.794,0.977-3.576,1.881-5.347,2.725c-3.539,1.689-7.028,3.148-10.367,4.536
		c-6.808,2.527-12.454,5.881-16.721,9.609c-14.238,9.71-11.851,3.233-25.088,15.82c0,0-1.659,0.74-3.317,1.481
		c-1.667,0.741-3.304,1.533-3.304,1.533c-5.949,5.038-2.838,5.231-9.712,10.427c-0.299-1.104-8.613,6.749-5.546,2.652l-2.887,2.314
		l-2.594,2.642c-1.708,1.797-3.386,3.652-5.049,5.557c-3.262,3.865-6.781,7.665-9.884,12.033
		c-6.024,8.906-13.071,17.868-20.524,28.472c-0.601,2.917-2.87,6.951-4.995,10.862c-1.818,4.075-3.61,7.966-3.844,10.159
		c-0.536,0.122-3.377,5.939-5.503,10c-1.139,2-1.735,3.716-2.075,3.935c-0.232,0.267-0.372-1.027,0.81-4.489
		c0.403-1.194,1.388-3.183,1.629-2.906l-0.309-2.059c-4.477,6.099-6.169,12.74-8.043,19.18c-0.882,3.23-1.772,6.473-2.672,9.763
		c-0.844,3.31-1.416,6.771-2.456,10.263c1.451-4.082,2.79-9.66,2.6-5.72l-3.519,13.025L22,196.958c0,0-1.392,4.859-2.786,9.718
		c-0.688,2.434-0.976,4.952-1.368,6.806c-0.342,1.864-0.571,3.108-0.571,3.108l1.624-2.54c-1.056,4.813-2.227,8.013-3.129,11.428
		c-0.835,3.419-1.773,7.029-1.018,12.69c0.701,5.086,2.116-9.158,1.961,1.227c-0.371,3.266-0.786,6.94-1.234,10.869
		c-0.323,3.942-1.167,8.158-0.985,12.5c0.01,4.36,0.021,8.824,0.032,13.25c0.133,4.432-0.109,8.875,0.626,13.047
		c1.132-1.715,1.755,2.771,2.735,7.328l-1.099,0.709c2.169,8.715,1.773,10.429,1.338,12.181c-0.53,1.757-0.696,3.468,2.114,11.974
		l2.395,2.639c6.248,14.792-0.347,9.197,8.714,24.897c-2.604-6.52,1.334-3.984,3.792,4.218l-1.819-1.617
		c1.896,4.372,2.745,5.729,3.979,8.638c-1.792-2.311-2.187-0.69,1.04,5.568l-3.357-3.666l7.683,11.085
		c0.869,2.426,1.925,5.189,3.341,7.864c1.569,2.598,3.182,5.269,4.699,7.777c3.072,5.003,5.711,9.369,6.137,11.621
		c0,0,0.625,1.243,1.92,2.965c1.273,1.738,2.998,4.097,4.816,6.581c3.544,4.624,7.44,9.704,9.867,11.341
		c-2.802-1.592,4.307,6.903,1.131,5.244c2.413,1.729,6.65,5.558,10.732,9.675c1.009,1.044,2.017,2.093,3.003,3.109
		c1.042,0.973,2.057,1.924,3.02,2.817c1.896,1.823,3.491,3.531,4.522,4.914L94.8,446.17c4.486,4.402,8.576,8.621,13.048,11.942
		c4.511,3.275,8.889,6.276,13.19,9.212c4.192,3.104,8.739,5.513,13.239,8.176c4.515,2.63,8.939,5.622,13.671,8.717
		c-0.267-1.664,10.071,4.165,8.219,1.31c5.416,2.08,10.321,4.59,14.982,6.814c4.744,2.007,9.189,3.896,13.191,5.6
		c4.042,1.612,7.595,3.32,10.928,3.795c3.304,0.551,6.165,0.574,8.525-0.228c5.088,1.16,8.002,2.234,10.312,3.231
		c2.299,1.017,3.99,1.939,6.667,2.416l-2.536-0.093c9.763,1.306,16.058,2.146,21.724,2.907c5.654,0.798,10.756,0.678,18.039,1.233
		c7.317-0.248,8.453-2.249,21.371-2.475c-4.147,1.221,1.137,0.77,5.985,0.525c-3.08,0.312-4.033,0.732,2.402,1.085
		c0.881-0.36,2.254-0.623,3.532-0.854c0.067,0.077,0.328,0.13,0.207,0.246c8.06-1.025,6.567-1.521,2.853-0.975
		c0.17-0.177-0.16-0.311-1.35-0.55c8.479,0.269,23.128-3.545,24.457-1.949c23.805-5.816,39.982-12.818,57.74-22.271
		c2.428-0.178-1.486,2.582-6.66,5.455l12.829-6.539c0.471,1.195-7.142,4.264-11.036,6.417c4.083-1.387,8.094-3.174,12.076-5.167
		c1.963-1.033,3.949-2.075,5.962-3.127c1.926-1.204,3.791-2.559,5.702-3.856c3.814-2.626,7.684-5.301,11.739-7.871l3.074-1.909
		l2.975-2.132c2.012-1.411,4.079-2.782,6.238-4.099l2.726-3.307l1.065-0.591c-0.382-0.386,2.767-3.646,5.017-5.555
		c2.844-1.002,1.503,2.136,8.855-4.619c3.259-2.271,7.408-6.083,11.427-10.415c3.655-4.632,7.534-9.538,10.73-13.588
		c-3.868,3.984-3.127,2.241-1.823,0.222c3.303-3.67,6.131-5.026,7.961-8.479l1.104,0.422c-0.287-1.404,6.979-11.367,7.513-13.006
		c2.604-1.62-3.82,6.713-3.897,8.221c11.837-16.085,6.064-7.944,16.445-24.976c4.522-9.646-2.232,0.934-0.753-4.06
		c2.458-3.95,3.921-8.361,5.865-12.703c1.879-4.354,4.013-8.755,6.664-13.396c-0.245,0.304-2.631,2.479-2.631,2.479
		c5.486-16.479,9.196-26.029,13.094-37.126c0.663-3.979,1.286-7.75,1.876-11.312c0.343-3.587,0.446-6.991,0.64-10.154
		c0.054-1.217,0.11-2.391,0.169-3.544c1.78-11.894,2.711-24.063,2.711-36.455c0-3.005-0.071-5.993-0.182-8.972
		c0.331-2.225,0.661-4.875,0.989-8.008C513.914,239.659,514.25,236.734,514.424,233.477z"/>
	<path fill="#000907" d="M447.625,80.216c0.468,0.434,0.93,0.867,1.372,1.297C448.474,80.945,448.021,80.531,447.625,80.216z"/>
</g>
<g>
	<g>
		<g>
			<path fill="#00D3C0" d="M259.141,381.509c0.234-1.099,0.273-2.664,0.119-4.696c-0.154-2.428-0.197-4.112-0.119-5.053
				c0.543-6.568,0.824-13.2,0.824-19.896c0-0.396,0.196-0.59,0.589-0.59c0.393,0,0.58,0.194,0.58,0.59
				c0,7.278-0.273,13.954-0.818,20.016c-0.081,0.865-0.042,2.464,0.116,4.819c0.158,2.229,0.122,3.911-0.116,5.046
				c-0.081,0.388-0.315,0.552-0.704,0.475C259.216,382.131,259.062,381.892,259.141,381.509z"/>
			<path fill="#00D3C0" d="M259.797,384.252l-0.585-0.061c-0.922-0.183-1.43-0.696-1.697-1.101
				c-0.262-0.396-0.542-1.062-0.355-1.979c0.142-0.646,0.261-1.856,0.084-4.148c-0.167-2.579-0.207-4.329-0.112-5.373
				c0.539-6.495,0.808-13.131,0.808-19.729c0-1.518,1.099-2.609,2.615-2.609c1.505,0,2.604,1.094,2.604,2.609
				c0,7.3-0.278,14.093-0.828,20.203c-0.046,0.512-0.065,1.714,0.122,4.494c0.168,2.437,0.121,4.27-0.161,5.591
				C262.039,383.41,261.034,384.252,259.797,384.252z"/>
		</g>
	</g>
	<g>
		<g>
			<path fill="#00D3C0" d="M275.625,383.528c0.24-1.094,0.275-2.659,0.118-4.698c-0.159-2.423-0.198-4.111-0.118-5.046
				c0.545-6.575,0.823-13.206,0.823-19.902c0-0.383,0.19-0.584,0.581-0.584c0.395,0,0.591,0.201,0.591,0.584
				c0,7.283-0.271,13.952-0.821,20.021c-0.081,0.86-0.039,2.464,0.115,4.812c0.152,2.229,0.115,3.918-0.115,5.048
				c-0.081,0.395-0.309,0.553-0.701,0.473S275.545,383.922,275.625,383.528z"/>
			<path fill="#00D3C0" d="M276.273,386.277l-0.58-0.065c-0.92-0.182-1.43-0.697-1.691-1.094c-0.268-0.397-0.54-1.063-0.359-1.986
				c0.135-0.646,0.267-1.854,0.084-4.143c-0.16-2.579-0.201-4.332-0.115-5.368c0.539-6.503,0.812-13.144,0.812-19.739
				c0-1.508,1.1-2.607,2.605-2.607c1.52,0,2.609,1.102,2.609,2.607c0,7.302-0.281,14.104-0.828,20.203
				c-0.045,0.512-0.063,1.714,0.123,4.496c0.166,2.438,0.114,4.27-0.154,5.595C278.527,385.432,277.518,386.277,276.273,386.277z"/>
		</g>
	</g>
	<g>
		<g>
			<path fill="#00D3C0" d="M282.816,375.115c-1.119-0.042-2.67,0.195-4.649,0.701c-2.36,0.582-4.011,0.914-4.949,0.99
				c-6.569,0.606-13.149,1.482-19.739,2.646c-0.383,0.073-0.612-0.082-0.684-0.473c-0.066-0.392,0.095-0.612,0.477-0.688
				c7.17-1.262,13.798-2.142,19.862-2.663c0.859-0.062,2.433-0.392,4.716-0.943c2.172-0.542,3.84-0.799,4.998-0.763
				c0.396,0.006,0.594,0.215,0.582,0.612C283.422,374.927,283.215,375.132,282.816,375.115z"/>
			<path fill="#00D3C0" d="M285.406,373.994l0.046,0.589c-0.025,0.942-0.444,1.528-0.791,1.856
				c-0.343,0.328-0.953,0.726-1.896,0.702c-0.654-0.029-1.873,0.063-4.096,0.635c-2.51,0.608-4.23,0.949-5.27,1.046
				c-6.494,0.593-13.074,1.479-19.577,2.624c-1.487,0.267-2.76-0.623-3.021-2.114c-0.265-1.492,0.628-2.76,2.116-3.026
				c7.19-1.268,13.934-2.166,20.037-2.687c0.521-0.047,1.699-0.229,4.41-0.896c2.375-0.586,4.188-0.862,5.531-0.818
				C284.186,371.934,285.191,372.773,285.406,373.994z"/>
		</g>
	</g>
	<g>
		<g>
			<path fill="#00D3C0" d="M283.771,358.605c-1.119-0.048-2.664,0.191-4.646,0.692c-2.357,0.576-4.008,0.912-4.947,1
				c-6.566,0.603-13.146,1.482-19.735,2.644c-0.39,0.064-0.618-0.095-0.688-0.481c-0.065-0.378,0.099-0.6,0.482-0.673
				c7.169-1.264,13.789-2.153,19.856-2.67c0.86-0.071,2.427-0.393,4.72-0.953c2.164-0.536,3.83-0.793,4.992-0.76
				c0.397,0.008,0.592,0.218,0.581,0.618C284.38,358.419,284.173,358.615,283.771,358.605z"/>
			<path fill="#00D3C0" d="M286.363,357.484l0.041,0.584c-0.014,0.938-0.438,1.523-0.782,1.858
				c-0.349,0.327-0.961,0.721-1.897,0.695c-0.654-0.024-1.871,0.063-4.095,0.646c-2.509,0.604-4.235,0.942-5.271,1.039
				c-6.49,0.6-13.077,1.478-19.573,2.619c-1.487,0.271-2.756-0.619-3.023-2.108c-0.258-1.487,0.631-2.765,2.116-3.024
				c7.194-1.27,13.938-2.171,20.04-2.694c0.521-0.042,1.698-0.229,4.403-0.89c2.375-0.59,4.188-0.864,5.543-0.823
				C285.139,355.419,286.148,356.265,286.363,357.484z"/>
		</g>
	</g>
</g>
<g>
	<path fill="#00D3C0" d="M105.325,168.253c-4.252-1.098-7.597-1.444-10.156-1.015c-0.829,0.165-1.433,0.524-1.792,1.062
		c-0.356,0.533-0.456,1.22-0.306,1.92c-0.25,0.3-0.44,0.646-0.563,1.025c-0.426,1.135-0.709,2.822-0.846,5.05
		c0,0.678,0.033,2.599,0.1,5.767c0.068,3.155,0.103,4.931,0.103,5.333l0.004,10.837c-0.4,4.002-0.739,7.053-1.008,9.073
		c-1.21,10.076-1.922,20.824-2.124,31.948c-0.201,11.137-0.098,24.386,0.305,39.374c0.406,15.264,0.604,25.686,0.604,31.868
		c0,1.688,0.93,2.618,2.615,2.618c1.666,0,2.619-0.953,2.619-2.618v-0.87l0.342-0.681l0.053-0.154
		c0.539-2.853,0.848-5.837,0.916-8.876c0.068-2.994,0.032-6.707-0.102-11.029c-0.13-4.169-0.201-7.095-0.201-8.458v-22.732
		c0.992-0.188,2.686-0.281,5.053-0.281c1.688,0,2.615-0.931,2.615-2.618c0-1.658-0.953-2.611-2.615-2.611
		c-2.319,0-3.984,0.042-5.053,0.129c0.008-13.515,0.211-25.161,0.606-34.625c0.268-6.932,0.473-13.386,0.604-19.143l1.009-11.909
		l0.804-10.269l0.409-3.303v-0.758c0.903,0.132,2.411,0.515,4.528,1.142c0.279,0.054,0.538,0.083,0.778,0.083
		c1.23,0,2.097-0.719,2.444-2.033C107.481,169.916,106.875,168.767,105.325,168.253z"/>
	<path fill="#00D3C0" d="M154.21,308.888c-1.513,0-2.527-0.552-3.13-1.74c-1.153-1.792-2.071-6.386-2.73-13.661
		c-0.532-5.064-1.008-11.643-1.411-19.512v-2.222c0-0.313-0.064-0.622-0.2-0.938l-0.608-17.841l-0.399-16.555
		c-0.135-4.397-0.274-7.729-0.409-9.917c-0.273-3.55-1.176-6.982-2.676-10.192c-1.521-3.244-3.214-5.529-5.053-6.809
		c-1.134-0.752-2.294-1.132-3.443-1.132c-0.197,0-0.393,0.009-0.522,0.029c-1.552,0-2.805,0.7-3.712,2.056
		c-1.57,2.14-2.333,5.692-2.333,10.852c0,1.682,0.928,2.612,2.616,2.612c1.686,0,2.616-0.93,2.616-2.612
		c0-3.894,0.44-6.496,1.218-7.677h0.247l0.019-0.025c0.048,0.025,0.112,0.061,0.197,0.118c1.249,0.872,2.434,2.556,3.529,5
		c1.111,2.481,1.807,5.272,2.071,8.267c0.125,2.174,0.441,11.099,0.94,26.541c-0.509-0.621-1.044-1.098-1.601-1.43l-0.241-0.229
		c-2.371-1.467-4.951-1.066-7.604,1.299c-0.885,0.882-1.658,2.415-2.369,4.683c-0.543,1.771-1.024,4.113-1.43,6.955
		c-0.404,2.828-0.745,5.823-1.016,8.965l0.002,0.549c-0.538,5.904-0.776,11.695-0.709,17.219c0.073,5.623,0.308,9.357,0.72,11.425
		c0.547,2.47,1.321,4.503,2.246,5.934c0.725,1.892,1.781,3.158,3.118,3.754c2.353,1.179,4.665,0.799,6.72-1.1
		c1.417-1.273,2.628-3.399,3.587-6.278l0.394-0.986c0.432-0.973,0.818-2.021,1.159-3.143c0.706,4.09,1.501,6.934,2.422,8.655
		c1.727,2.871,4.341,4.329,7.777,4.329c1.666,0,2.619-0.957,2.619-2.618C156.829,309.844,155.875,308.888,154.21,308.888z
		 M140.288,285.758c-0.271,6.868-1.073,12.479-2.357,16.612c-1.015,2.153-2.145,3.55-3.362,4.165
		c-0.238,0.117-0.374,0.139-0.519,0.104l-0.306-0.303c-0.499-1.419-0.883-3.3-1.137-5.611c-0.666-4.787-0.938-10.66-0.802-17.471
		c0-3.107,0.067-6.15,0.197-9.016c0.668-5.996,1.542-10.713,2.583-13.965c0.638-1.532,1.272-2.62,1.965-3.325
		c0.061-0.094,0.113-0.16,0.158-0.211c0.508,0.626,0.982,1.542,1.43,2.762c0.123,0.252,0.248,0.564,0.367,0.921
		c0.39,1.294,0.721,2.925,0.989,4.852c0.267,1.953,0.535,4.065,0.802,6.291c0.132,5.485,0.064,9.811-0.2,12.902
		C140.095,284.898,140.159,285.334,140.288,285.758z"/>
	<path fill="#00D3C0" d="M236.731,209.245c-0.46,0-0.966,0.145-1.491,0.435c-4.883,2.738-8.88,6.931-11.896,12.473
		c0.051-1.607,0.073-3.917,0.073-6.907v-0.272c0.135-0.308,0.199-0.608,0.187-0.794c0.158-0.65,0.155-1.233,0.01-1.655
		c-0.173-1.023-0.799-1.743-1.887-2.107c-0.845-0.145-1.637,0.008-2.368,0.495c-0.725,0.481-1.247,1.277-1.545,2.329
		c-0.154,0.462-0.229,1.055-0.229,1.804v2.621c0,2.108-0.271,5.066-0.805,8.785c-0.672,4.309-1.014,7.536-1.014,9.558
		c-0.134,3.23-0.274,6.66-0.407,10.315l0.007,0.14c-0.669,6.562-1.015,14.048-1.015,22.229c-0.937,17.836-1.413,31.899-1.413,41.805
		c0,1.688,0.931,2.618,2.618,2.618c1.488,0,2.405-0.763,2.585-2.114c1.196-0.297,1.846-1.177,1.846-2.523
		c0-3.771-0.067-9.151-0.196-16.451c-0.141-7.03-0.207-11.877-0.207-14.42v-8.846c0.522-10.251,0.86-17.304,0.999-20.982
		c0.254-0.298,0.451-0.668,0.609-1.145c1.461-7.996,3.384-14.773,5.709-20.151c2.293-5.3,5.971-9.38,10.938-12.125
		c1.514-0.835,1.877-2.13,1.046-3.641C238.203,209.498,237.334,209.245,236.731,209.245z"/>
	<path fill="#00D3C0" d="M330.693,308.888c-1.52,0-2.532-0.552-3.133-1.74c-1.151-1.792-2.074-6.386-2.731-13.661
		c-0.532-5.064-1.007-11.643-1.408-19.512v-2.222c0-0.313-0.067-0.622-0.207-0.938l-0.606-17.841l-0.4-16.555
		c-0.132-4.397-0.27-7.729-0.4-9.917c-0.281-3.55-1.178-6.982-2.685-10.192c-1.515-3.244-3.215-5.529-5.046-6.809
		c-1.139-0.752-2.292-1.132-3.449-1.132c-0.195,0-0.395,0.009-0.52,0.029c-1.555,0-2.809,0.7-3.711,2.056
		c-1.571,2.14-2.33,5.692-2.33,10.852c0,1.682,0.924,2.612,2.609,2.612c1.688,0,2.618-0.93,2.618-2.612
		c0-3.894,0.438-6.496,1.218-7.677h0.245l0.019-0.025c0.056,0.025,0.111,0.061,0.197,0.118c1.25,0.872,2.438,2.556,3.533,5
		c1.109,2.481,1.803,5.272,2.062,8.267c0.133,2.174,0.449,11.099,0.945,26.541c-0.512-0.621-1.048-1.098-1.599-1.43l-0.246-0.229
		c-2.364-1.467-4.953-1.07-7.604,1.299c-0.885,0.882-1.657,2.415-2.367,4.683c-0.545,1.771-1.022,4.113-1.432,6.955
		c-0.401,2.828-0.75,5.823-1.021,8.965l0.007,0.549c-0.537,5.904-0.777,11.695-0.705,17.219c0.067,5.623,0.303,9.357,0.719,11.425
		c0.539,2.47,1.316,4.503,2.246,5.934c0.726,1.892,1.775,3.158,3.112,3.754c2.353,1.179,4.669,0.799,6.722-1.1
		c1.416-1.273,2.631-3.399,3.584-6.278l0.398-0.986c0.432-0.973,0.818-2.021,1.156-3.143c0.71,4.09,1.503,6.934,2.422,8.655
		c1.727,2.871,4.343,4.329,7.783,4.329c1.664,0,2.617-0.957,2.617-2.618C333.311,309.844,332.357,308.888,330.693,308.888z
		 M316.766,285.758c-0.271,6.868-1.074,12.479-2.354,16.612c-1.021,2.153-2.148,3.55-3.366,4.165
		c-0.233,0.117-0.368,0.139-0.517,0.104l-0.309-0.303c-0.498-1.419-0.885-3.3-1.141-5.611c-0.664-4.787-0.936-10.66-0.799-17.471
		c0-3.107,0.07-6.15,0.195-9.016c0.668-5.996,1.541-10.713,2.586-13.965c0.635-1.532,1.271-2.62,1.961-3.325
		c0.062-0.094,0.113-0.16,0.156-0.211c0.508,0.626,0.983,1.542,1.43,2.762c0.125,0.252,0.248,0.564,0.369,0.921
		c0.39,1.294,0.727,2.925,0.99,4.852c0.266,1.953,0.533,4.065,0.805,6.291c0.129,5.485,0.062,9.811-0.209,12.902
		C316.568,284.898,316.633,285.334,316.766,285.758z"/>
	<path fill="#00D3C0" d="M391.831,305.652c0-1.745-0.14-4.145-0.411-7.12c-0.136-1.501-0.343-3.206-0.604-5.038l-0.405-4.654
		c-0.156-1.459-0.196-2.086-0.196-2.402c-0.271-3.326-0.645-10.553-1.111-21.476c-0.469-10.87-1.074-20.417-1.812-28.382
		c-0.743-7.921-1.871-15.081-3.354-21.306c-0.506-1.683-1.582-2.037-2.392-2.037c-0.269,0-0.56,0.037-0.86,0.116
		c-1.604,0.425-2.287,1.506-1.938,3.046c0.664,2.666,1.272,5.736,1.806,9.134c0.531,3.42,0.94,6.364,1.203,8.749
		c0.268,2.396,0.564,5.887,0.909,10.672c0.331,4.656,0.53,7.805,0.608,9.362c0.062,1.556,0.229,5.156,0.502,10.806
		c0.029,0.625,0.058,1.217,0.084,1.78c-4.625-19.713-10.147-36.972-16.451-51.38c-0.006-0.982-0.156-1.749-0.415-2.221
		c-0.304-1.369-0.874-2.313-1.572-2.72l-0.325-0.326c-0.591-1.239-1.466-1.506-2.104-1.506c-0.387,0-0.816,0.103-1.264,0.299
		c-0.756,0.337-1.252,0.804-1.479,1.394c-0.22,0.589-0.168,1.267,0.163,1.995l0.363,0.926c0.021,0.177,0.086,0.378,0.193,0.617
		c0.014,0.28,0.055,0.547,0.115,0.804c0.081,0.324,0.086,0.435,0.086,0.463v47.628c0,1.611,0.03,4.543,0.102,8.785
		c0.064,4.242,0.17,7.615,0.306,10.02l0.606,8.862c0.135,3.479,0.403,6.758,0.807,9.743c0.41,3.001,0.888,5.997,1.422,8.916
		c0.374,1.881,1.654,2.166,2.375,2.166c0.232,0,0.484-0.03,0.766-0.085c1.504-0.333,2.242-1.352,2.082-2.807v-0.199
		c0-4.831-0.344-11.704-1.015-20.429c-0.923-11.953-1.476-19.008-1.611-20.375c-0.271-3.705-0.196-8.839,0.205-15.265
		c0.401-7.763,0.604-12.998,0.604-15.573c0-0.401,0.031-1.635,0.099-3.715c0.026-0.73,0.045-1.425,0.058-2.08
		c4.883,13.731,9.183,29.486,12.784,46.88c0.8,3.992,2.054,11.375,3.825,22.56l0.195,1.539v0.205l0.062,0.264
		c0.095,0.191,0.144,0.441,0.144,0.742c0,0.443,0.062,0.818,0.207,1.14v1.076h0.345l0.303,0.462l0.154,0.551l0.009,1.501
		c-0.156,0.784-0.148,1.41,0.02,1.915c0.336,1.005,0.944,1.644,1.812,1.902c0.342,0.104,0.678,0.154,1.001,0.154
		c0.44,0,0.869-0.104,1.205-0.274c0.842-0.33,1.431-1,1.763-1.979l0.032-0.095l-0.013-0.996
		C391.963,307.65,391.963,306.736,391.831,305.652z"/>
	<path fill="#00D3C0" d="M445.918,267.116c-1.687,0-2.618,0.933-2.618,2.616v17.151c0,5.455-0.337,9.966-0.997,13.404
		c-0.604,3.026-1.204,4.333-1.612,4.887l-0.131,0.067c-0.163-0.042-0.449-0.184-0.891-0.633c-2.195-2.062-3.768-5.014-4.671-8.795
		c-1.599-6.107-2.134-16.168-1.599-29.896c0.13-3.106,0.312-6.853,0.569-11.128h0.238c0.526,0,1.216,0.032,2.074,0.098
		c0.899,0.068,1.481,0.105,1.764,0.105c1.667,0,2.95-0.066,3.832-0.203c0.754,0,1.344-0.076,1.717-0.21
		c0.928-0.154,1.647-0.482,2.138-0.973l0.112-0.157c0.275-0.554,0.556-1.17,0.854-1.942c0.149-0.578,0.223-1.305,0.215-2.097
		c0.143-1.384,0.206-3.17,0.206-5.31c0-4.557-0.271-9.468-0.812-14.601c-0.676-5.808-1.637-10.538-2.849-14.034
		c-0.705-2.243-1.462-3.883-2.3-5.004c-1.165-1.678-2.537-2.53-4.102-2.53c-0.229,0-0.477,0.02-0.707,0.057
		c-2.259,0.305-3.918,2.076-4.937,5.277c-0.55,1.916-0.966,4.463-1.23,7.576c-0.136,1.653-0.235,3.43-0.305,5.276
		c-0.074,1.894-0.102,3.65-0.102,5.271v2.99l-0.812,14.527c-0.403,6.739-0.672,12.287-0.808,16.964
		c-0.537,14.25,0.018,24.695,1.637,31.047c1.234,4.936,3.328,8.771,6.234,11.396c1.43,1.287,2.831,2.02,4.179,2.171
		c0.183,0.019,0.364,0.025,0.542,0.025c1.43,0,2.646-0.552,3.588-1.637c1.413-1.551,2.477-4.089,3.17-7.556
		c0.676-3.785,1.02-8.644,1.02-14.438V269.73C448.529,268.068,447.576,267.116,445.918,267.116z M435.017,234.417v-2.823
		c0-1.609,0.024-3.319,0.099-5.122c0.068-1.818,0.168-3.538,0.303-5.141c0.126-2.752,0.461-4.934,0.973-6.477
		c0.227-0.612,0.404-1.019,0.549-1.29l0.029,0.037c0.496,0.617,1.006,1.776,1.521,3.45c1.058,3.168,1.928,7.542,2.592,12.991
		c0.534,4.959,0.804,9.689,0.804,14.062c0,1.978-0.063,3.584-0.193,4.842c0,0.271-0.021,0.472-0.049,0.622h-0.278
		c-0.626,0.125-1.738,0.19-3.314,0.19c-0.264,0-0.816-0.028-1.673-0.098c-0.896-0.066-1.545-0.103-1.958-0.103h-0.178
		C434.622,241.842,434.882,236.805,435.017,234.417z"/>
	<path fill="#00D3C0" d="M190.33,207.576c0-1.662-0.953-2.615-2.619-2.615c-1.662,0-2.615,0.953-2.615,2.615
		c0,22.854-0.95,45.858-2.824,68.361c-0.271,3.235-0.136,9.106,0.406,17.455c0.305,4.021,0.373,7.627,0.206,10.721
		c-0.029-0.004-0.062-0.01-0.097-0.01l-0.277-0.004c-0.403,0-0.831,0.035-1.272,0.104l-0.167,0.053
		c-0.019,0.008-0.092,0.038-0.29,0.059c-0.244,0.021-0.386,0.051-0.486,0.084c-0.248,0.043-0.538,0.136-0.878,0.289
		c-0.02,0-0.039,0-0.059,0l-0.25,0.023l-0.674,0.314c-0.302,0.146-0.598,0.33-0.801,0.5c-1.739,0.902-3.333,2.028-4.744,3.353
		c-1.152,1.105-2.059,2.24-2.635,3.295c-0.396,0.505-0.724,0.994-1.001,1.52c-0.351,0.885-0.428,1.83-0.225,2.796
		c0.235,1.269,0.844,2.479,1.797,3.61c0.203,0.256,0.412,0.41,0.644,0.479c0.09,0.047,0.19,0.091,0.303,0.123l0.187,0.098
		l0.213-0.098l0.083,0.089l0.149-0.071c0.488,0.065,1.097-0.048,1.742-0.271c0.428-0.118,1.233-0.454,2.396-1.005
		c0.147-0.069,0.444-0.237,1.407-0.916c0.737-0.521,1.646-1.233,2.699-2.117c1.072-0.907,2.039-1.809,2.799-2.623l0.44-0.345
		c0.188-0.168,0.258-0.208,0.317-0.244c0.405-0.251,0.73-0.474,1.004-0.662c1.208-0.047,2.017-0.796,2.284-2.118
		c0.812-3.925,0.953-9.817,0.415-17.521c-0.534-8.006-0.673-13.541-0.406-16.445C189.376,255.676,190.33,232.501,190.33,207.576z
		 M182.281,309.369c-0.074,0.378-0.084,0.739-0.029,1.094c-0.039,0.053-0.08,0.104-0.129,0.159
		c-0.203,0.117-0.554,0.361-1.346,0.995l-2.307,1.575c-0.737,0.584-1.445,1.073-2.138,1.478c-1.536,1.041-2.782,1.825-3.668,2.322
		c-0.421,0.201-0.776,0.348-1.108,0.454c-0.025-0.118-0.039-0.247-0.042-0.39c-0.003-0.468,0.126-1.015,0.393-1.643
		c0.065-0.162,0.132-0.319,0.203-0.49c0.207-0.042,0.39-0.182,0.519-0.41c0.067-0.144,0.145-0.29,0.231-0.438l0.004-0.046
		c0.354-0.391,0.809-0.791,1.356-1.199c0.538-0.41,1.301-0.931,2.257-1.537c0.957-0.597,1.63-1.046,1.869-1.242
		c0.68-0.485,1.23-0.903,1.684-1.309c0.29-0.328,0.512-0.646,0.667-0.959c0.557-0.163,1.194-0.222,1.874-0.196
		C182.491,308.194,182.397,308.819,182.281,309.369z"/>
	<path fill="#00D3C0" d="M282.947,301.525c-0.408-0.271-0.877-0.521-1.446-0.767l-0.176-0.041c-0.039-0.007-0.132-0.022-0.293-0.093
		c-0.233-0.132-0.392-0.188-0.515-0.216c-0.236-0.099-0.553-0.177-0.953-0.228c-0.121-0.076-0.261-0.135-0.422-0.158l-0.652-0.063
		c-0.336-0.041-0.812-0.032-1,0.006c-2.077-0.146-4.129-0.012-6.151,0.401c-1.644,0.363-3.085,0.895-4.215,1.527
		c-0.123,0.047-0.235,0.094-0.345,0.146c0.297-6.112-0.088-13.833-1.146-22.94c-1.146-25.556-3.287-50.422-6.372-73.958
		c-0.157-0.776-0.309-2.108-0.448-3.95c-0.146-1.873-0.337-4.229-0.585-7.051c-0.238-2.547-0.467-4.963-0.69-7.249
		c-0.443-4.402-0.847-7.726-1.201-9.865c-0.197-1.487-0.383-2.703-0.58-3.75L255.271,172c-0.528-0.953-1.233-1.51-2.001-1.621
		c-0.833-0.295-1.635-0.258-2.372,0.108c-0.759,0.373-1.282,1.059-1.569,2.078c-0.136,0.627-0.106,1.366,0.08,2.258l0.058,0.16
		c0.065,0.125,0.203,0.471,0.419,1.484c0.133,0.45,0.21,0.739,0.219,0.851c0.025,0.566,0.333,2.752,0.585,4.487l0.835,5.827
		c0.181,1.192,1.295,10.591,3.33,27.919c0.817,7.216,1.601,16.62,2.322,27.958c0.899,12.566,1.679,22.051,2.322,28.166
		c0.014,0.384,0.194,2.038,0.338,3.356c0.21,1.951,0.405,3.486,0.58,4.476l0.995,24.964c-0.068,1.715-0.274,3.317-0.609,4.786
		c-0.26,1.434,0.291,2.438,1.514,2.798c0.31,0.416,0.876,0.821,1.895,0.821h0.146c0.562-0.021,1.06-0.168,1.494-0.424
		c0.517,0.1,1.137,0.188,1.937,0.289c1.266-0.055,2.909-0.189,4.832-0.401c0.962-0.037,2.497-0.233,4.666-0.588
		c1.134-0.132,2.696-0.312,3.172-0.325c1.153-0.046,1.929-0.62,2.248-1.672c0.25-0.126,0.543-0.271,0.766-0.529
		c0.675-0.711,1.103-1.655,1.292-2.825c0.2-1.299,0.055-2.436-0.441-3.383C284.029,302.443,283.562,301.943,282.947,301.525z
		 M264.213,312.281v-0.007h0.001L264.213,312.281z M266.516,307.959L266.516,307.959v-0.005V307.959z M280.906,306.341
		c-0.129-0.06-0.325-0.14-0.646-0.14c-0.002,0-0.002,0-0.002,0c-0.525,0.02-1.562,0.122-3.499,0.344
		c-2.288,0.361-3.842,0.555-4.795,0.596c-1.721,0.195-3.124,0.317-4.042,0.37c-0.361-0.068-0.684-0.114-0.977-0.142
		c-0.038-0.456-0.104-1-0.196-1.611c0.019-0.02,0.036-0.042,0.056-0.061c0.144-0.113,0.291-0.227,0.467-0.346
		c0.082,0.03,0.17,0.045,0.254,0.045l0.263-0.026l0.729-0.431c0.523-0.149,1.139-0.254,1.834-0.316
		c0.731-0.082,1.709-0.125,2.906-0.133c1.277-0.02,2.079-0.061,2.383-0.094c0.897-0.073,1.616-0.147,2.252-0.258
		c0.449-0.146,0.824-0.309,1.135-0.505c1.103,0.285,2.139,0.884,3.092,1.81c0.085,0.072,0.154,0.141,0.217,0.207
		C282.002,305.864,281.525,306.094,280.906,306.341z"/>
</g>
</svg>
