<?xml version="1.0" encoding="utf-8"?>
<!-- Generator: Adobe Illustrator 16.0.0, SVG Export Plug-In . SVG Version: 6.00 Build 0)  -->
<!DOCTYPE svg PUBLIC "-//W3C//DTD SVG 1.1//EN" "http://www.w3.org/Graphics/SVG/1.1/DTD/svg11.dtd">
<svg version="1.1" id="Layer_1" xmlns="http://www.w3.org/2000/svg" xmlns:xlink="http://www.w3.org/1999/xlink" x="0px" y="0px"
	 width="216.747px" height="50.713px" viewBox="0 0 216.747 50.713" enable-background="new 0 0 216.747 50.713"
	 xml:space="preserve">
<g>
	<path fill="#2C2C2C" d="M76.09-0.115h2.993l4.435,12.536H80.67l-0.802-2.584h-4.631l-0.87,2.584h-2.763L76.09-0.115z M75.936,7.671
		h3.198l-1.561-4.963h-0.034L75.936,7.671z"/>
	<path fill="#2C2C2C" d="M84.95,3.126h2.303v1.33h0.034c0.165-0.278,0.338-0.519,0.52-0.721c0.182-0.202,0.384-0.368,0.605-0.499
		c0.221-0.131,0.468-0.227,0.738-0.29s0.575-0.094,0.917-0.094c0.284,0,0.577,0.034,0.878,0.102
		c0.301,0.068,0.596,0.178,0.882,0.329c0.287,0.15,0.559,0.347,0.814,0.588c0.256,0.241,0.48,0.539,0.673,0.891
		c0.193,0.353,0.347,0.763,0.461,1.232C93.89,6.464,93.947,7,93.947,7.603c0,0.751-0.081,1.438-0.244,2.063
		c-0.162,0.626-0.406,1.163-0.733,1.612c-0.327,0.449-0.739,0.798-1.236,1.049c-0.498,0.25-1.082,0.375-1.752,0.375
		c-0.233,0-0.469-0.022-0.708-0.068c-0.239-0.045-0.472-0.122-0.699-0.23c-0.228-0.108-0.442-0.254-0.644-0.439
		c-0.202-0.184-0.379-0.416-0.533-0.695h-0.034v4.75H84.95V3.126z M89.351,5.019c-0.386,0-0.712,0.083-0.976,0.247
		c-0.265,0.166-0.478,0.378-0.64,0.64c-0.162,0.262-0.28,0.557-0.354,0.887c-0.074,0.329-0.111,0.656-0.111,0.98
		c0,0.176,0.01,0.368,0.03,0.576s0.058,0.417,0.115,0.631c0.057,0.213,0.135,0.419,0.235,0.619c0.099,0.199,0.226,0.375,0.379,0.528
		c0.154,0.153,0.338,0.277,0.554,0.371c0.216,0.093,0.472,0.14,0.768,0.14c0.295,0,0.552-0.047,0.767-0.14
		c0.216-0.094,0.401-0.218,0.555-0.371c0.153-0.154,0.28-0.33,0.379-0.528c0.1-0.199,0.178-0.406,0.234-0.619
		c0.057-0.213,0.096-0.423,0.115-0.631c0.02-0.208,0.03-0.4,0.03-0.576c0-0.325-0.037-0.651-0.111-0.98
		c-0.074-0.33-0.192-0.625-0.354-0.887c-0.162-0.262-0.377-0.475-0.644-0.64C90.056,5.101,89.731,5.019,89.351,5.019z"/>
	<path fill="#2C2C2C" d="M97.699,5.087h-2.814V3.126h8.033v1.961h-2.814v7.334h-2.405V5.087z"/>
	<path fill="#2C2C2C" d="M103.668,6.4h4.758v2.303h-4.758V6.4z"/>
	<path fill="#2C2C2C" d="M110.167,3.126h2.303v1.33h0.033c0.166-0.278,0.338-0.519,0.521-0.721c0.184-0.202,0.385-0.368,0.605-0.499
		c0.223-0.131,0.468-0.227,0.738-0.29c0.269-0.063,0.575-0.094,0.916-0.094c0.285,0,0.578,0.034,0.879,0.102
		c0.301,0.068,0.596,0.178,0.883,0.329c0.285,0.15,0.558,0.347,0.813,0.588c0.255,0.241,0.479,0.539,0.675,0.891
		c0.192,0.353,0.346,0.763,0.461,1.232c0.112,0.469,0.17,1.005,0.17,1.607c0,0.751-0.082,1.438-0.244,2.063
		c-0.162,0.626-0.407,1.163-0.733,1.612c-0.327,0.449-0.737,0.798-1.235,1.049c-0.498,0.25-1.082,0.375-1.752,0.375
		c-0.234,0-0.47-0.022-0.709-0.068c-0.238-0.045-0.472-0.122-0.699-0.23c-0.229-0.108-0.442-0.254-0.644-0.439
		c-0.203-0.184-0.38-0.416-0.532-0.695h-0.035v4.75h-2.414V3.126L110.167,3.126z M114.567,5.019c-0.387,0-0.713,0.083-0.977,0.247
		c-0.266,0.166-0.479,0.378-0.641,0.64c-0.162,0.262-0.279,0.557-0.353,0.887c-0.075,0.329-0.111,0.656-0.111,0.98
		c0,0.176,0.011,0.368,0.03,0.576s0.059,0.417,0.115,0.631c0.056,0.213,0.134,0.419,0.234,0.619
		c0.098,0.199,0.225,0.375,0.379,0.528c0.153,0.153,0.338,0.277,0.555,0.371c0.216,0.093,0.472,0.14,0.768,0.14
		c0.294,0,0.551-0.047,0.766-0.14c0.219-0.094,0.402-0.218,0.557-0.371c0.152-0.154,0.279-0.33,0.38-0.528
		c0.099-0.199,0.177-0.406,0.233-0.619s0.096-0.423,0.115-0.631s0.03-0.4,0.03-0.576c0-0.325-0.038-0.651-0.112-0.98
		c-0.074-0.33-0.191-0.625-0.354-0.887c-0.162-0.262-0.377-0.475-0.643-0.64C115.272,5.101,114.948,5.019,114.567,5.019z"/>
	<path fill="#2C2C2C" d="M122.633,8.523c0,0.085,0.009,0.199,0.025,0.341c0.018,0.142,0.051,0.295,0.104,0.461
		c0.05,0.165,0.125,0.331,0.221,0.498c0.098,0.168,0.227,0.32,0.389,0.457c0.162,0.137,0.361,0.247,0.598,0.333
		c0.236,0.085,0.519,0.127,0.849,0.127c0.17,0,0.341-0.024,0.509-0.072c0.166-0.048,0.32-0.12,0.463-0.213
		c0.142-0.094,0.267-0.208,0.371-0.341c0.105-0.133,0.182-0.286,0.226-0.457h2.499c0,0.17-0.036,0.366-0.111,0.584
		c-0.072,0.219-0.186,0.44-0.335,0.666c-0.149,0.225-0.34,0.445-0.567,0.661c-0.229,0.216-0.5,0.408-0.811,0.576
		c-0.314,0.167-0.667,0.303-1.062,0.405c-0.395,0.103-0.834,0.154-1.316,0.154c-0.62,0-1.201-0.092-1.744-0.277
		c-0.543-0.185-1.018-0.477-1.425-0.878c-0.405-0.401-0.726-0.92-0.958-1.556c-0.235-0.637-0.352-1.41-0.352-2.32
		c0-0.631,0.084-1.238,0.252-1.821c0.166-0.583,0.428-1.096,0.783-1.539c0.356-0.443,0.811-0.798,1.364-1.062
		c0.556-0.265,1.222-0.396,2-0.396c0.825,0,1.517,0.135,2.081,0.405c0.562,0.27,1.016,0.652,1.359,1.146
		c0.345,0.495,0.59,1.092,0.738,1.791c0.146,0.699,0.223,1.476,0.223,2.328L122.633,8.523L122.633,8.523z M126.499,6.92
		c0-0.41-0.062-0.75-0.185-1.023c-0.123-0.273-0.276-0.491-0.461-0.653s-0.388-0.275-0.608-0.341
		c-0.224-0.065-0.436-0.098-0.641-0.098c-0.2,0-0.409,0.033-0.631,0.098c-0.223,0.066-0.426,0.18-0.61,0.341
		c-0.184,0.162-0.337,0.38-0.46,0.653c-0.121,0.273-0.183,0.613-0.183,1.023H126.499z"/>
	<path fill="#2C2C2C" d="M130.079,5.701c0.006-0.512,0.109-0.948,0.311-1.309s0.479-0.655,0.824-0.883
		c0.346-0.227,0.756-0.394,1.228-0.499c0.472-0.105,0.979-0.158,1.526-0.158c0.613,0,1.143,0.073,1.586,0.221
		c0.443,0.148,0.81,0.344,1.1,0.588c0.29,0.245,0.502,0.525,0.639,0.84c0.138,0.315,0.205,0.638,0.205,0.968
		c0,0.273-0.039,0.516-0.119,0.729c-0.08,0.213-0.188,0.398-0.324,0.555c-0.137,0.156-0.295,0.286-0.473,0.388
		c-0.18,0.102-0.367,0.179-0.559,0.229v0.034c0.324,0.052,0.6,0.146,0.826,0.286c0.229,0.139,0.412,0.306,0.556,0.499
		c0.142,0.193,0.246,0.405,0.31,0.636c0.066,0.23,0.099,0.456,0.099,0.678c0,0.58-0.112,1.072-0.34,1.475
		c-0.226,0.404-0.525,0.733-0.892,0.989c-0.367,0.256-0.779,0.442-1.236,0.559c-0.458,0.117-0.918,0.175-1.377,0.175
		c-0.602,0-1.155-0.055-1.659-0.166c-0.504-0.111-0.937-0.292-1.298-0.546c-0.359-0.253-0.643-0.583-0.848-0.989
		c-0.205-0.407-0.311-0.906-0.315-1.497h2.303c0,0.216,0.039,0.415,0.12,0.597c0.078,0.182,0.189,0.338,0.333,0.47
		c0.142,0.13,0.312,0.233,0.511,0.306c0.2,0.074,0.422,0.111,0.666,0.111c0.295,0,0.542-0.046,0.738-0.14
		c0.195-0.094,0.35-0.212,0.463-0.354c0.113-0.142,0.195-0.294,0.243-0.456c0.049-0.162,0.073-0.312,0.073-0.448
		c0-0.443-0.121-0.754-0.363-0.934c-0.24-0.178-0.625-0.268-1.154-0.268h-1.109V6.775h0.93c0.542,0,0.924-0.094,1.146-0.281
		c0.226-0.188,0.338-0.461,0.338-0.819c0-0.21-0.033-0.387-0.099-0.529c-0.067-0.142-0.155-0.257-0.272-0.345
		c-0.117-0.089-0.254-0.151-0.414-0.188c-0.158-0.037-0.332-0.056-0.521-0.056c-0.426,0-0.772,0.098-1.036,0.294
		c-0.265,0.196-0.396,0.479-0.396,0.849L130.079,5.701L130.079,5.701z"/>
	<path fill="#2C2C2C" d="M139.348,3.126h2.414v5.73h0.035l3.385-5.73h2.533v9.295h-2.406V6.818h-0.042l-3.283,5.603h-2.635
		L139.348,3.126L139.348,3.126z"/>
	<path fill="#2C2C2C" d="M149.215,10.468h0.964c0.226-0.426,0.416-0.874,0.567-1.343c0.15-0.469,0.271-0.942,0.362-1.419
		c0.089-0.478,0.155-0.945,0.195-1.403c0.038-0.458,0.067-0.889,0.085-1.292c0.018-0.403,0.023-0.768,0.021-1.091
		c-0.004-0.324-0.002-0.588,0.004-0.793h7.266v7.342h1.169v4.188h-2.271v-2.234h-6.097v2.234h-2.269v-4.188H149.215z
		 M156.276,10.468V5.087h-2.764c0,0.17-0.002,0.381-0.004,0.631c-0.004,0.251-0.014,0.528-0.035,0.832
		c-0.02,0.304-0.049,0.626-0.084,0.968c-0.038,0.341-0.092,0.683-0.162,1.023c-0.073,0.341-0.157,0.677-0.257,1.006
		c-0.099,0.33-0.224,0.637-0.372,0.921H156.276z"/>
	<path fill="#2C2C2C" d="M162.911,8.523c0,0.085,0.008,0.199,0.026,0.341c0.017,0.142,0.05,0.295,0.101,0.461
		c0.053,0.165,0.127,0.331,0.225,0.498c0.095,0.168,0.226,0.32,0.388,0.457c0.162,0.137,0.36,0.247,0.597,0.333
		c0.235,0.085,0.518,0.127,0.849,0.127c0.17,0,0.339-0.024,0.507-0.072c0.167-0.048,0.324-0.12,0.466-0.213
		c0.142-0.094,0.265-0.208,0.37-0.341c0.105-0.133,0.18-0.286,0.227-0.457h2.498c0,0.17-0.037,0.366-0.109,0.584
		c-0.074,0.219-0.188,0.44-0.338,0.666c-0.15,0.225-0.338,0.445-0.566,0.661c-0.229,0.216-0.497,0.408-0.811,0.576
		c-0.312,0.168-0.666,0.303-1.062,0.405c-0.396,0.103-0.833,0.154-1.317,0.154c-0.619,0-1.201-0.092-1.744-0.277
		c-0.543-0.185-1.02-0.477-1.424-0.878c-0.408-0.401-0.728-0.92-0.959-1.556c-0.233-0.637-0.35-1.41-0.35-2.32
		c0-0.631,0.084-1.238,0.251-1.821s0.431-1.096,0.784-1.539s0.811-0.798,1.365-1.062c0.553-0.265,1.22-0.396,1.998-0.396
		c0.826,0,1.52,0.135,2.082,0.405c0.562,0.27,1.016,0.652,1.36,1.146c0.343,0.495,0.589,1.092,0.737,1.791
		c0.148,0.699,0.22,1.476,0.22,2.328L162.911,8.523L162.911,8.523z M166.773,6.92c0-0.41-0.062-0.75-0.183-1.023
		c-0.123-0.273-0.275-0.491-0.459-0.653c-0.187-0.162-0.389-0.275-0.611-0.341c-0.221-0.065-0.434-0.098-0.639-0.098
		c-0.198,0-0.409,0.033-0.631,0.098c-0.222,0.066-0.424,0.18-0.609,0.341c-0.186,0.162-0.34,0.38-0.46,0.653
		c-0.123,0.273-0.185,0.613-0.185,1.023H166.773z"/>
	<path fill="#2C2C2C" d="M170.894,3.126h2.412v3.36h3.548v-3.36h2.404v9.295h-2.404V8.438h-3.548v3.982h-2.412V3.126z"/>
	<path fill="#2C2C2C" d="M181.561,3.126h2.412v7.342h3.548V3.126h2.405v7.342h1.135v4.187h-2.234v-2.234h-7.266V3.126z"/>
	<path fill="#2C2C2C" d="M192.229,3.126h2.413v5.73h0.034l3.386-5.73h2.532v9.295h-2.405V6.818h-0.043l-3.283,5.603h-2.634V3.126
		L192.229,3.126z"/>
	<path fill="#2C2C2C" d="M211.282,12.421h-2.424v-3.42h-1.576c-0.347,0-0.646,0.013-0.892,0.039
		c-0.249,0.026-0.452,0.085-0.611,0.179c-0.159,0.093-0.278,0.232-0.36,0.413c-0.084,0.182-0.131,0.43-0.142,0.742l-0.034,0.895
		c-0.011,0.131-0.027,0.302-0.047,0.512c-0.019,0.21-0.074,0.424-0.166,0.64h-2.55c0.075-0.125,0.134-0.246,0.179-0.362
		c0.047-0.117,0.082-0.23,0.107-0.341c0.025-0.111,0.046-0.223,0.061-0.337c0.014-0.114,0.025-0.233,0.039-0.358l0.118-1.117
		c0.028-0.25,0.063-0.465,0.103-0.647c0.039-0.182,0.105-0.34,0.195-0.474c0.092-0.134,0.217-0.249,0.377-0.345
		c0.158-0.097,0.37-0.185,0.639-0.265c-0.086-0.022-0.182-0.055-0.286-0.098s-0.216-0.1-0.332-0.171
		c-0.116-0.071-0.233-0.162-0.351-0.273c-0.117-0.111-0.227-0.249-0.328-0.413c-0.074-0.108-0.133-0.223-0.174-0.346
		c-0.043-0.122-0.076-0.241-0.099-0.358c-0.022-0.116-0.038-0.226-0.043-0.328c-0.005-0.103-0.008-0.19-0.008-0.265
		c0-0.329,0.041-0.624,0.118-0.882c0.082-0.259,0.184-0.485,0.308-0.679c0.125-0.193,0.269-0.358,0.427-0.494
		c0.159-0.137,0.321-0.248,0.486-0.333c0.182-0.103,0.384-0.18,0.605-0.234c0.221-0.054,0.438-0.093,0.647-0.119
		s0.407-0.042,0.589-0.047c0.182-0.005,0.324-0.008,0.426-0.008h5v9.294H211.282z M208.857,4.942h-1.942
		c-0.207,0-0.412,0.005-0.615,0.018c-0.204,0.011-0.387,0.055-0.549,0.132c-0.162,0.077-0.293,0.196-0.395,0.358
		c-0.1,0.162-0.148,0.391-0.148,0.687c0,0.29,0.049,0.511,0.148,0.665c0.1,0.153,0.229,0.267,0.385,0.341
		c0.155,0.074,0.329,0.116,0.523,0.127c0.193,0.011,0.386,0.017,0.578,0.017h2.014L208.857,4.942L208.857,4.942z"/>
</g>
<g>
	<path fill="#2C2C2C" d="M72.474,18.816h2.627v4.768h4.92v-4.768h2.618v12.537h-2.618V25.75h-4.92v5.603h-2.627V18.816z"/>
	<path fill="#2C2C2C" d="M85.019,22.058h2.413v5.73h0.034l3.385-5.73h2.533v9.294h-2.405V25.75h-0.042l-3.283,5.603H85.02
		L85.019,22.058L85.019,22.058z"/>
	<path fill="#2C2C2C" d="M95.754,22.058h2.413v3.531l3.479-3.531h3.207l-3.838,3.863l4,5.434h-3.147l-2.728-3.924l-0.972,0.98v2.941
		h-2.413L95.754,22.058L95.754,22.058z"/>
	<path fill="#2C2C2C" d="M105.8,26.705c0-0.718,0.11-1.375,0.329-1.979c0.218-0.603,0.534-1.122,0.946-1.557
		c0.413-0.435,0.911-0.774,1.496-1.019c0.586-0.245,1.245-0.367,1.979-0.367c0.744,0,1.412,0.122,2,0.367
		c0.59,0.244,1.087,0.584,1.492,1.019c0.406,0.435,0.717,0.954,0.935,1.557c0.215,0.603,0.323,1.261,0.323,1.979
		c0,0.716-0.108,1.376-0.323,1.979c-0.216,0.602-0.526,1.121-0.935,1.561c-0.405,0.438-0.902,0.779-1.492,1.021
		c-0.588,0.246-1.256,0.366-2,0.366c-0.733,0-1.393-0.122-1.979-0.366c-0.585-0.244-1.083-0.586-1.496-1.021
		c-0.413-0.438-0.728-0.959-0.946-1.561C105.91,28.082,105.8,27.421,105.8,26.705z M108.316,26.705c0,0.353,0.039,0.701,0.115,1.044
		c0.077,0.345,0.203,0.65,0.38,0.921c0.176,0.271,0.406,0.489,0.689,0.653c0.285,0.164,0.635,0.246,1.049,0.246
		c0.432,0,0.791-0.082,1.08-0.243c0.287-0.162,0.517-0.375,0.687-0.64s0.29-0.568,0.363-0.914c0.069-0.342,0.106-0.701,0.106-1.068
		c0-0.363-0.037-0.721-0.106-1.066c-0.073-0.346-0.192-0.652-0.363-0.917c-0.17-0.264-0.399-0.477-0.687-0.64
		c-0.289-0.162-0.647-0.243-1.08-0.243c-0.416,0-0.764,0.083-1.049,0.248c-0.283,0.165-0.514,0.382-0.689,0.652
		c-0.177,0.27-0.303,0.577-0.38,0.922C108.354,26.004,108.316,26.354,108.316,26.705z"/>
	<path fill="#2C2C2C" d="M125.9,31.353h-2.405v-7.333h-2.849l-0.05,1.732c-0.028,0.971-0.092,1.824-0.188,2.557
		c-0.098,0.734-0.255,1.348-0.475,1.838c-0.219,0.494-0.514,0.862-0.887,1.112c-0.373,0.251-0.848,0.375-1.428,0.375
		c-0.273,0-0.512-0.015-0.718-0.046c-0.204-0.031-0.371-0.076-0.502-0.133v-2.021c0.08,0.035,0.183,0.065,0.304,0.094
		c0.121,0.027,0.271,0.041,0.447,0.041c0.182,0,0.344-0.053,0.486-0.164c0.143-0.112,0.265-0.313,0.365-0.606
		c0.104-0.293,0.184-0.698,0.24-1.216s0.094-1.186,0.11-2.003l0.067-3.522h7.479V31.353z"/>
	<path fill="#2C2C2C" d="M135.944,29.519c0,0.279,0.018,0.508,0.049,0.688c0.03,0.178,0.071,0.32,0.123,0.427
		c0.053,0.104,0.109,0.183,0.174,0.229c0.066,0.049,0.137,0.084,0.209,0.105v0.385h-2.668c-0.047-0.108-0.096-0.25-0.15-0.431
		c-0.053-0.18-0.081-0.396-0.081-0.651c-0.187,0.192-0.37,0.371-0.55,0.535c-0.18,0.166-0.381,0.311-0.602,0.432
		c-0.222,0.121-0.477,0.219-0.768,0.289c-0.291,0.072-0.639,0.106-1.051,0.106c-0.414,0-0.795-0.06-1.146-0.183
		s-0.651-0.303-0.909-0.542c-0.255-0.24-0.455-0.537-0.597-0.896c-0.144-0.357-0.212-0.773-0.212-1.246
		c0-0.379,0.059-0.733,0.179-1.061s0.288-0.614,0.509-0.863c0.217-0.246,0.485-0.451,0.801-0.613
		c0.314-0.164,0.67-0.271,1.061-0.328l2.361-0.35c0.087-0.011,0.18-0.028,0.279-0.051c0.099-0.023,0.191-0.062,0.276-0.115
		c0.085-0.053,0.156-0.127,0.212-0.222c0.059-0.094,0.088-0.22,0.088-0.379c0-0.154-0.025-0.294-0.074-0.422
		c-0.049-0.128-0.129-0.239-0.242-0.333c-0.115-0.093-0.268-0.166-0.457-0.217c-0.191-0.052-0.43-0.077-0.713-0.077
		c-0.324,0-0.584,0.033-0.779,0.098c-0.197,0.065-0.352,0.156-0.467,0.272c-0.112,0.117-0.194,0.253-0.245,0.41
		c-0.052,0.157-0.089,0.323-0.112,0.499h-2.413c0-0.113,0.019-0.271,0.056-0.473c0.039-0.202,0.104-0.422,0.205-0.661
		c0.099-0.238,0.237-0.48,0.418-0.724c0.179-0.245,0.414-0.468,0.707-0.669c0.293-0.202,0.649-0.369,1.069-0.499
		c0.421-0.131,0.925-0.199,1.511-0.205c0.828,0,1.502,0.084,2.017,0.251s0.913,0.387,1.202,0.657c0.287,0.27,0.479,0.571,0.58,0.904
		c0.1,0.333,0.148,0.664,0.148,0.993v4.93H135.944z M133.534,26.817c-0.148,0.078-0.297,0.149-0.445,0.216
		c-0.147,0.065-0.344,0.122-0.588,0.166l-0.64,0.12c-0.278,0.05-0.522,0.109-0.733,0.179s-0.385,0.158-0.524,0.269
		c-0.138,0.11-0.244,0.246-0.315,0.404c-0.07,0.16-0.106,0.36-0.106,0.598c0,0.199,0.032,0.371,0.095,0.517
		c0.061,0.146,0.148,0.265,0.26,0.356c0.111,0.096,0.239,0.166,0.387,0.209c0.148,0.047,0.308,0.069,0.479,0.069
		c0.092,0,0.208-0.01,0.35-0.028c0.142-0.021,0.293-0.06,0.451-0.115c0.159-0.06,0.318-0.137,0.479-0.234
		c0.158-0.102,0.302-0.229,0.427-0.389c0.125-0.158,0.228-0.354,0.308-0.584s0.119-0.502,0.119-0.813V26.817L133.534,26.817z"/>
	<path fill="#2C2C2C" d="M137.396,25.333h4.757v2.302h-4.757V25.333z"/>
	<path fill="#2C2C2C" d="M151.765,20.975h-3.677l0.01,1.893c0.005,1.143-0.018,2.151-0.073,3.023
		c-0.054,0.873-0.14,1.633-0.255,2.277c-0.117,0.645-0.266,1.188-0.443,1.625c-0.18,0.438-0.392,0.788-0.636,1.053
		c-0.244,0.266-0.522,0.454-0.836,0.566c-0.312,0.115-0.655,0.17-1.032,0.17c-0.307,0-0.578-0.018-0.812-0.057
		c-0.237-0.035-0.473-0.104-0.704-0.199l-0.011-2.396c0.08,0.041,0.164,0.072,0.254,0.098c0.086,0.027,0.173,0.048,0.259,0.062
		c0.085,0.014,0.164,0.023,0.233,0.029c0.07,0.005,0.127,0.008,0.168,0.008c0.152,0,0.297-0.021,0.431-0.064
		c0.133-0.043,0.251-0.135,0.356-0.277c0.106-0.141,0.198-0.346,0.276-0.614c0.081-0.266,0.147-0.623,0.201-1.065
		c0.055-0.441,0.095-0.991,0.12-1.646c0.025-0.654,0.037-1.436,0.037-2.345v-4.299h8.75v12.538h-2.618V20.975H151.765z"/>
	<path fill="#2C2C2C" d="M158.282,27.456c0,0.083,0.008,0.197,0.024,0.34s0.05,0.296,0.103,0.461
		c0.051,0.165,0.123,0.331,0.221,0.498c0.097,0.169,0.227,0.32,0.389,0.457s0.359,0.247,0.598,0.333
		c0.234,0.086,0.518,0.128,0.85,0.128c0.17,0,0.339-0.025,0.507-0.072c0.168-0.049,0.321-0.121,0.465-0.213
		c0.142-0.095,0.265-0.209,0.371-0.342c0.104-0.133,0.18-0.286,0.226-0.457h2.5c0,0.17-0.039,0.366-0.113,0.583
		c-0.071,0.222-0.186,0.44-0.336,0.666c-0.149,0.226-0.338,0.445-0.567,0.66c-0.226,0.218-0.497,0.409-0.81,0.577
		c-0.312,0.167-0.668,0.303-1.062,0.404c-0.396,0.103-0.834,0.153-1.317,0.153c-0.619,0-1.201-0.092-1.744-0.278
		c-0.543-0.184-1.019-0.478-1.424-0.875c-0.406-0.402-0.726-0.922-0.959-1.559c-0.232-0.637-0.351-1.41-0.351-2.32
		c0-0.631,0.084-1.236,0.251-1.819c0.167-0.582,0.43-1.096,0.784-1.539c0.356-0.443,0.812-0.798,1.364-1.062
		c0.555-0.265,1.221-0.396,2-0.396c0.826,0,1.519,0.135,2.082,0.405c0.562,0.27,1.017,0.653,1.359,1.147
		c0.344,0.495,0.59,1.091,0.737,1.791c0.147,0.699,0.222,1.476,0.222,2.329H158.282z M162.143,25.852c0-0.41-0.062-0.75-0.184-1.023
		c-0.123-0.273-0.275-0.491-0.459-0.652c-0.185-0.162-0.389-0.276-0.61-0.341s-0.435-0.098-0.642-0.098
		c-0.197,0-0.408,0.033-0.631,0.098c-0.221,0.065-0.424,0.179-0.609,0.341c-0.184,0.162-0.338,0.379-0.459,0.652
		c-0.123,0.273-0.186,0.613-0.186,1.023H162.143z"/>
	<path fill="#2C2C2C" d="M166.262,22.058h2.412v3.36h3.548v-3.36h2.405v9.294h-2.405V27.37h-3.548v3.982h-2.412V22.058z"/>
	<path fill="#2C2C2C" d="M176.931,22.058h2.413v5.73h0.033l3.387-5.73h2.531v9.294h-2.404V25.75h-0.043l-3.283,5.603h-2.634V22.058
		L176.931,22.058z"/>
	<path fill="#2C2C2C" d="M187.667,22.058h4.81c0.427,0,0.837,0.037,1.231,0.11c0.396,0.074,0.744,0.204,1.045,0.388
		c0.302,0.185,0.541,0.435,0.722,0.751c0.179,0.315,0.269,0.714,0.269,1.197c0,0.279-0.031,0.521-0.09,0.725
		c-0.061,0.205-0.141,0.38-0.242,0.523c-0.104,0.146-0.222,0.269-0.354,0.369c-0.134,0.098-0.271,0.183-0.414,0.251
		c0.466,0.165,0.821,0.427,1.065,0.787c0.244,0.363,0.367,0.793,0.367,1.292c0,0.438-0.076,0.835-0.227,1.188
		c-0.15,0.356-0.363,0.66-0.639,0.914c-0.276,0.254-0.611,0.449-1.006,0.588c-0.396,0.14-0.838,0.209-1.326,0.209h-5.211V22.058
		L187.667,22.058z M190.079,25.707h1.859c0.271,0,0.501-0.021,0.684-0.063c0.182-0.044,0.324-0.106,0.43-0.188
		c0.105-0.083,0.178-0.185,0.222-0.307c0.043-0.123,0.063-0.266,0.063-0.431c0-0.137-0.021-0.263-0.063-0.38
		c-0.043-0.117-0.116-0.216-0.216-0.299c-0.104-0.082-0.24-0.147-0.41-0.196c-0.17-0.048-0.384-0.073-0.641-0.073h-1.928V25.707
		L190.079,25.707z M190.079,29.64h1.859c0.348,0,0.627-0.039,0.839-0.113c0.216-0.073,0.38-0.166,0.496-0.281
		c0.116-0.113,0.194-0.237,0.229-0.374c0.037-0.138,0.057-0.265,0.057-0.386c0-0.226-0.031-0.416-0.089-0.566
		c-0.06-0.15-0.153-0.271-0.282-0.361c-0.128-0.091-0.296-0.154-0.502-0.188c-0.208-0.034-0.458-0.051-0.747-0.051h-1.858v2.32
		H190.079z"/>
	<path fill="#2C2C2C" d="M198.01,22.058h2.414v7.341h3.547v-7.341h2.404v7.341h1.135v4.188h-2.233v-2.232h-7.267V22.058
		L198.01,22.058z"/>
	<path fill="#2C2C2C" d="M216.191,29.519c0,0.279,0.017,0.508,0.047,0.688c0.031,0.178,0.072,0.32,0.123,0.427
		c0.052,0.104,0.109,0.183,0.177,0.229c0.063,0.049,0.133,0.084,0.209,0.105v0.385h-2.67c-0.047-0.108-0.096-0.25-0.15-0.431
		c-0.053-0.18-0.08-0.396-0.08-0.651c-0.188,0.192-0.371,0.371-0.551,0.535c-0.178,0.166-0.379,0.311-0.6,0.432
		c-0.224,0.121-0.479,0.219-0.768,0.289c-0.29,0.072-0.641,0.106-1.049,0.106c-0.416,0-0.797-0.06-1.147-0.183
		c-0.349-0.123-0.651-0.303-0.907-0.542c-0.257-0.24-0.455-0.537-0.598-0.896c-0.143-0.357-0.213-0.773-0.213-1.246
		c0-0.379,0.061-0.733,0.18-1.061s0.288-0.614,0.508-0.863c0.219-0.246,0.486-0.451,0.803-0.613
		c0.314-0.164,0.668-0.271,1.061-0.328l2.361-0.35c0.088-0.011,0.18-0.028,0.279-0.051c0.099-0.023,0.19-0.062,0.277-0.115
		c0.084-0.054,0.156-0.127,0.212-0.222c0.058-0.094,0.085-0.22,0.085-0.379c0-0.154-0.023-0.294-0.07-0.422
		c-0.051-0.128-0.131-0.239-0.244-0.333c-0.113-0.093-0.268-0.166-0.457-0.217c-0.19-0.052-0.428-0.077-0.713-0.077
		c-0.323,0-0.582,0.033-0.779,0.098s-0.35,0.156-0.465,0.272c-0.114,0.117-0.195,0.253-0.247,0.41
		c-0.052,0.157-0.089,0.323-0.11,0.499h-2.415c0-0.113,0.021-0.271,0.056-0.473c0.039-0.202,0.106-0.422,0.207-0.661
		c0.099-0.238,0.237-0.48,0.416-0.724c0.18-0.245,0.416-0.468,0.709-0.669c0.293-0.202,0.647-0.369,1.069-0.499
		c0.423-0.131,0.925-0.199,1.511-0.205c0.828,0,1.502,0.084,2.016,0.251c0.515,0.167,0.916,0.387,1.203,0.657
		s0.479,0.571,0.58,0.904c0.1,0.333,0.148,0.664,0.148,0.993v4.93H216.191z M213.778,26.817c-0.148,0.078-0.294,0.149-0.441,0.216
		c-0.148,0.065-0.346,0.122-0.59,0.166l-0.639,0.12c-0.279,0.05-0.523,0.109-0.734,0.179c-0.209,0.067-0.385,0.158-0.524,0.269
		c-0.138,0.11-0.243,0.246-0.315,0.404c-0.07,0.16-0.105,0.36-0.105,0.598c0,0.199,0.031,0.371,0.095,0.517
		c0.062,0.146,0.147,0.265,0.259,0.356c0.11,0.096,0.24,0.166,0.389,0.209c0.147,0.047,0.307,0.069,0.478,0.069
		c0.091,0,0.207-0.01,0.349-0.028c0.143-0.021,0.293-0.06,0.453-0.115c0.158-0.06,0.317-0.137,0.477-0.234
		c0.158-0.102,0.302-0.229,0.427-0.389c0.125-0.158,0.226-0.354,0.308-0.584c0.077-0.23,0.118-0.502,0.118-0.813L213.778,26.817
		L213.778,26.817z"/>
</g>
<g>
	<path fill="#2C2C2C" d="M72.747,44.466l2.908-2.517v2.021l-1.734,1.5l1.734,1.494v2.021l-2.908-2.514V44.466z M76.516,44.466
		l2.908-2.517v2.021l-1.735,1.5l1.735,1.494v2.021l-2.908-2.514V44.466z"/>
	<path fill="#2C2C2C" d="M82.485,37.749h2.618v5.1l4.793-5.1h3.385l-5.116,5.134l5.415,7.402h-3.318l-3.88-5.552l-1.279,1.305v4.248
		h-2.618V37.749z"/>
	<path fill="#2C2C2C" d="M94.177,45.638c0-0.717,0.11-1.375,0.329-1.979c0.219-0.604,0.534-1.122,0.947-1.557
		c0.412-0.434,0.911-0.774,1.496-1.019c0.585-0.244,1.245-0.367,1.979-0.367c0.745,0,1.411,0.123,2,0.367
		c0.589,0.244,1.086,0.585,1.493,1.019c0.406,0.435,0.717,0.955,0.934,1.557c0.216,0.604,0.324,1.262,0.324,1.979
		c0,0.715-0.108,1.375-0.324,1.979c-0.216,0.602-0.527,1.121-0.934,1.561c-0.407,0.438-0.904,0.779-1.493,1.023
		c-0.588,0.244-1.255,0.365-2,0.365c-0.733,0-1.393-0.121-1.979-0.365c-0.586-0.244-1.084-0.586-1.496-1.023
		c-0.413-0.438-0.728-0.959-0.947-1.561C94.287,47.013,94.177,46.353,94.177,45.638z M96.693,45.638
		c0,0.353,0.039,0.701,0.115,1.045c0.077,0.344,0.203,0.65,0.379,0.92c0.176,0.271,0.406,0.487,0.69,0.652
		c0.285,0.165,0.634,0.247,1.049,0.247c0.432,0,0.792-0.081,1.079-0.243s0.516-0.375,0.686-0.64
		c0.171-0.265,0.292-0.569,0.363-0.913c0.071-0.344,0.107-0.701,0.107-1.068c0-0.365-0.036-0.721-0.107-1.066
		c-0.071-0.346-0.192-0.653-0.363-0.918c-0.17-0.264-0.399-0.478-0.686-0.641c-0.288-0.162-0.647-0.242-1.079-0.242
		c-0.415,0-0.764,0.084-1.049,0.248c-0.284,0.166-0.514,0.383-0.69,0.652s-0.303,0.577-0.379,0.921
		C96.732,44.937,96.693,45.285,96.693,45.638z"/>
	<path fill="#2C2C2C" d="M114.277,50.285h-2.405v-7.334h-2.848l-0.051,1.731c-0.028,0.973-0.092,1.823-0.188,2.559
		c-0.097,0.734-0.255,1.346-0.473,1.837c-0.219,0.493-0.515,0.862-0.887,1.114c-0.373,0.25-0.849,0.373-1.429,0.373
		c-0.273,0-0.512-0.014-0.716-0.045c-0.205-0.033-0.373-0.076-0.503-0.133v-2.021c0.08,0.035,0.181,0.066,0.303,0.095
		c0.123,0.028,0.271,0.042,0.448,0.042c0.182,0,0.344-0.057,0.486-0.166c0.142-0.109,0.265-0.312,0.366-0.605
		c0.103-0.293,0.182-0.696,0.239-1.217c0.057-0.516,0.094-1.184,0.111-2.002l0.068-3.521h7.479V50.285z"/>
	<path fill="#2C2C2C" d="M125.67,50.285h-2.405v-7.334h-2.847l-0.053,1.731c-0.029,0.973-0.091,1.823-0.188,2.559
		c-0.096,0.734-0.254,1.346-0.473,1.837c-0.221,0.493-0.517,0.862-0.888,1.114c-0.373,0.25-0.849,0.373-1.429,0.373
		c-0.271,0-0.512-0.014-0.715-0.045c-0.205-0.033-0.375-0.076-0.504-0.133v-2.021c0.08,0.035,0.181,0.066,0.304,0.095
		s0.271,0.042,0.446,0.042c0.184,0,0.346-0.057,0.488-0.166c0.141-0.109,0.264-0.312,0.366-0.605s0.183-0.696,0.237-1.217
		c0.059-0.516,0.095-1.184,0.111-2.002l0.068-3.521h7.479V50.285L125.67,50.285z"/>
	<path fill="#2C2C2C" d="M129.934,46.388c0,0.086,0.008,0.2,0.025,0.342c0.017,0.142,0.049,0.295,0.102,0.461
		c0.052,0.164,0.125,0.33,0.223,0.496c0.096,0.17,0.225,0.321,0.387,0.459c0.162,0.137,0.361,0.246,0.599,0.332
		c0.233,0.086,0.519,0.129,0.849,0.129c0.17,0,0.34-0.025,0.508-0.073c0.166-0.05,0.322-0.12,0.465-0.214
		c0.142-0.094,0.265-0.207,0.371-0.342c0.104-0.131,0.18-0.285,0.226-0.455h2.499c0,0.17-0.038,0.367-0.111,0.584
		c-0.072,0.219-0.187,0.44-0.337,0.664c-0.149,0.227-0.339,0.447-0.567,0.662c-0.227,0.217-0.498,0.408-0.811,0.575
		s-0.667,0.304-1.061,0.405c-0.396,0.104-0.834,0.152-1.317,0.152c-0.62,0-1.2-0.092-1.745-0.275
		c-0.542-0.184-1.018-0.477-1.423-0.878c-0.405-0.399-0.726-0.92-0.959-1.556c-0.233-0.638-0.351-1.41-0.351-2.32
		c0-0.631,0.084-1.238,0.25-1.82c0.168-0.583,0.431-1.097,0.785-1.54c0.355-0.442,0.811-0.797,1.364-1.062
		c0.554-0.264,1.22-0.396,1.999-0.396c0.826,0,1.52,0.137,2.083,0.405c0.562,0.271,1.017,0.653,1.359,1.147s0.589,1.092,0.737,1.791
		c0.147,0.698,0.222,1.476,0.222,2.328h-6.37V46.388z M133.795,44.784c0-0.409-0.062-0.75-0.183-1.021
		c-0.122-0.273-0.276-0.492-0.46-0.654s-0.388-0.275-0.609-0.34c-0.223-0.065-0.435-0.098-0.642-0.098
		c-0.198,0-0.407,0.032-0.631,0.098c-0.222,0.064-0.424,0.18-0.608,0.34c-0.185,0.162-0.338,0.381-0.461,0.654
		c-0.123,0.271-0.184,0.612-0.184,1.021H133.795z"/>
	<path fill="#2C2C2C" d="M137.984,40.99h2.414v3.53l3.478-3.53h3.209l-3.84,3.864l4,5.431h-3.146l-2.729-3.925l-0.972,0.982v2.941
		h-2.414V40.99z"/>
	<path fill="#2C2C2C" d="M150.595,42.951h-2.813V40.99h8.034v1.961h-2.813v7.334h-2.406L150.595,42.951L150.595,42.951z"/>
	<path fill="#2C2C2C" d="M157.316,40.99h2.413v5.731h0.034l3.386-5.731h2.532v9.295h-2.405v-5.603h-0.043l-3.283,5.603h-2.634V40.99
		L157.316,40.99z"/>
	<path fill="#2C2C2C" d="M168.051,40.99h4.811c0.428,0,0.838,0.036,1.232,0.11c0.395,0.073,0.744,0.203,1.045,0.387
		c0.301,0.187,0.542,0.435,0.72,0.752c0.179,0.314,0.269,0.715,0.269,1.197c0,0.279-0.029,0.521-0.09,0.726
		c-0.059,0.205-0.14,0.379-0.242,0.524c-0.104,0.146-0.221,0.268-0.355,0.367c-0.134,0.098-0.271,0.182-0.413,0.25
		c0.466,0.166,0.821,0.428,1.065,0.789c0.246,0.361,0.367,0.793,0.367,1.292c0,0.438-0.076,0.835-0.227,1.189
		s-0.363,0.659-0.639,0.913c-0.275,0.253-0.611,0.449-1.006,0.589c-0.396,0.138-0.836,0.208-1.325,0.208h-5.212V40.99L168.051,40.99
		z M170.465,44.64h1.859c0.272,0,0.5-0.021,0.682-0.062c0.182-0.043,0.326-0.105,0.43-0.188c0.105-0.082,0.18-0.186,0.225-0.308
		c0.041-0.122,0.063-0.265,0.063-0.431c0-0.137-0.022-0.262-0.063-0.379c-0.043-0.116-0.117-0.215-0.219-0.299
		c-0.104-0.082-0.24-0.147-0.411-0.195c-0.17-0.049-0.382-0.072-0.639-0.072h-1.927V44.64L170.465,44.64z M170.465,48.571h1.859
		c0.346,0,0.625-0.038,0.84-0.11c0.213-0.075,0.377-0.167,0.496-0.282c0.115-0.115,0.191-0.238,0.229-0.375
		c0.037-0.135,0.056-0.264,0.056-0.384c0-0.226-0.028-0.416-0.089-0.567c-0.059-0.15-0.152-0.271-0.281-0.362
		c-0.128-0.091-0.297-0.154-0.504-0.187c-0.207-0.035-0.455-0.051-0.744-0.051h-1.859v2.318H170.465z"/>
	<path fill="#2C2C2C" d="M180.153,46.472l-2.908,2.514v-2.021l1.734-1.493l-1.734-1.5V41.95l2.908,2.517V46.472z M183.922,46.472
		l-2.908,2.514v-2.021l1.734-1.493l-1.734-1.5V41.95l2.908,2.517V46.472z"/>
</g>
<path fill="#2C2C2C" d="M44.281,7.064v-3h-3.835v4.492l-3.72,1.447V8.059H32.89v3.437l-3.719,1.447V1.356h-3.834v13.077
	l-3.722,1.448V4.064H17.78v13.309l-3.72,1.447V0.067h-3.835v20.245l-3.721,1.447V6.834H2.669V23.25L0.35,24.153v0.17v0.986v0.933
	v1.917v0.001l0,0v0.106l2.319,0.901v20.319h3.835V30.659l3.721,1.447V42.72h3.835v-9.123l3.719,1.447v11.674h3.835V36.537
	l3.722,1.448v6.025h3.834v-4.535l3.719,1.447v9.791h3.835v-8.299l3.72,1.447v2.856h3.835v-1.366l6.927,2.694v-1.918v-0.933v-1.155
	l-6.927-2.694V28.158h6.925v-3.835h-6.925V11.07l6.927-2.695V6.458V5.526V4.37L44.281,7.064z M32.89,15.501v8.822h-3.72v-7.375
	L32.89,15.501z M25.336,18.439v5.884h-3.722v-4.436L25.336,18.439z M17.779,21.379v2.944H14.06v-1.497L17.779,21.379z
	 M10.225,24.323h-0.013l0.013-0.005V24.323z M14.06,29.591v-1.433h3.719v2.88L14.06,29.591z M21.614,32.53v-4.372h3.722v5.819
	L21.614,32.53z M29.17,35.469v-7.311h3.719v8.758L29.17,35.469z M40.445,39.854l-3.72-1.446v-10.25h3.72V39.854z M40.445,24.323
	h-3.72V14.009l3.72-1.447V24.323z"/>
</svg>
