<?xml version="1.0" encoding="utf-8"?>
<!-- Generator: Adobe Illustrator 16.0.0, SVG Export Plug-In . SVG Version: 6.00 Build 0)  -->
<!DOCTYPE svg PUBLIC "-//W3C//DTD SVG 1.1//EN" "http://www.w3.org/Graphics/SVG/1.1/DTD/svg11.dtd">
<svg version="1.1" id="Layer_1" xmlns="http://www.w3.org/2000/svg" xmlns:xlink="http://www.w3.org/1999/xlink" x="0px" y="0px"
	 width="35.375px" height="18.203px" viewBox="0 0 35.375 18.203" enable-background="new 0 0 35.375 18.203" xml:space="preserve">
<polygon fill="#231F20" points="0,0.3 11.3,0.3 11.3,3.9 7.6,3.9 7.6,18 3.5,18 3.5,3.9 0,3.9 "/>
<path fill="#231F20" d="M27.658,3.736v3.798h0.917c0.678,0,1.221-0.173,1.622-0.526c0.404-0.353,0.607-0.844,0.607-1.481
	c0-0.6-0.156-1.05-0.467-1.346c-0.311-0.295-0.771-0.445-1.396-0.445H27.658z M23.461,0.3h6.359c1.645,0,2.9,0.4,3.8,1.316
	C34.547,2.5,35,3.8,35,5.361c0,0.841-0.148,1.682-0.448,2.5c-0.298,0.844-0.925,1.576-1.883,2.202
	c-0.958,0.621-2.16,0.934-3.606,0.934h-1.403v7.025h-4.197V0.317L23.461,0.3L23.461,0.3z"/>
<path fill="#231F20" d="M13.976,14.061c-0.651-0.566-0.936-2.033-0.182-3.209c0.146-0.23,0.336-0.457,0.542-0.674l1.867,3.901
	C15.297,14.701,14.5,14.5,14,14.061H13.976z M22.337,18.057l-1.704-3.699c1.053-1.508,1.695-3.48,1.695-6.774h-3.611
	c0,0.6,0.1,1.886-0.003,2.989l-0.002,0.035l-1.826-4.21c0,0-0.293-0.684-0.464-1.156c-0.201-0.559-0.323-1.213,0.57-1.194h1.386
	V0.423v-0.12l-1.611-0.008c-2.333,0-3.118,0.57-3.823,1.7c-0.679,1.056-0.792,2.184-0.548,3.468c0.122,0.6,0.4,1.4,0.5,1.733
	c-0.258,0.201-0.521,0.42-0.779,0.7c-1.318,1.208-2.881,3.172-2.64,5.855c0.203,2.3,1.8,3.8,3.4,4.315c1.812,0.5,3.7,0,4.892-0.83
	l0.463,0.896h4.104L22.337,18.057L22.337,18.057z"/>
</svg>
