<?xml version="1.0" encoding="utf-8"?>
<!-- Generator: Adobe Illustrator 16.0.0, SVG Export Plug-In . SVG Version: 6.00 Build 0)  -->
<!DOCTYPE svg PUBLIC "-//W3C//DTD SVG 1.1//EN" "http://www.w3.org/Graphics/SVG/1.1/DTD/svg11.dtd">
<svg version="1.1" id="Layer_1" xmlns="http://www.w3.org/2000/svg" xmlns:xlink="http://www.w3.org/1999/xlink" x="0px" y="0px"
	 width="45.394px" height="45.353px" viewBox="0 0 45.394 45.353" enable-background="new 0 0 45.394 45.353" xml:space="preserve">
<path fill="#241F20" d="M17.406,27.454C11.688,34.798,5.5,28.735,5.5,28.735s3,6.875,13.75,6.875s11.577-3.327,13.375-5.125
	s2.75-6.375,2.75-6.375L40,22.735c0,0-2.124-0.375-2.916-0.666c1.624-0.5,2.499-2.917,2.499-2.917s-2.25,1.834-4.5,1.209
	c0.124-1.354-0.791-2.959-0.791-2.959s-1.126-2.334-4.709-3.209c-1.583-1.083,1.104-2.673,1.104-2.673s-3.156-0.723-5.522,1.225
	c-2.1,1.995-4.134,4.021-4.165,8.678c-2.244,0.242-5.875-4.562-5.875-4.562l-1.094,3.688L10.25,21.86
	C10.25,21.86,12.875,25.235,17.406,27.454z"/>
</svg>
