<?xml version="1.0" encoding="utf-8"?>
<!-- Generator: Adobe Illustrator 16.0.0, SVG Export Plug-In . SVG Version: 6.00 Build 0)  -->
<!DOCTYPE svg PUBLIC "-//W3C//DTD SVG 1.1//EN" "http://www.w3.org/Graphics/SVG/1.1/DTD/svg11.dtd">
<svg version="1.1" id="Layer_1" xmlns="http://www.w3.org/2000/svg" xmlns:xlink="http://www.w3.org/1999/xlink" x="0px" y="0px"
	 width="45.394px" height="45.353px" viewBox="0 0 45.394 45.353" enable-background="new 0 0 45.394 45.353" xml:space="preserve">
<path fill-rule="evenodd" clip-rule="evenodd" fill="#231F20" d="M21.804,34.341h2.2c0,0,0.665-0.073,1.004-0.439
	c0.312-0.336,0.302-0.966,0.302-0.966s-0.043-2.952,1.327-3.388c1.351-0.428,3.086,2.854,4.924,4.115
	c1.39,0.955,2.446,0.746,2.446,0.746l4.916-0.068c0,0,2.572-0.159,1.352-2.181c-0.1-0.165-0.709-1.495-3.654-4.229
	c-3.083-2.86-2.67-2.397,1.043-7.347c2.262-3.014,3.166-4.854,2.883-5.642c-0.269-0.75-1.932-0.553-1.932-0.553l-5.535,0.035
	c0,0-0.41-0.056-0.715,0.126c-0.297,0.178-0.488,0.593-0.488,0.593S31,17.476,29.832,19.46c-2.464,4.185-3.449,4.406-3.853,4.146
	c-0.938-0.606-0.703-2.434-0.703-3.731c0-4.056,0.615-5.747-1.198-6.185c-0.602-0.146-1.044-0.241-2.583-0.257
	c-1.975-0.02-3.646,0.006-4.593,0.47c-0.63,0.308-1.116,0.995-0.819,1.035c0.366,0.049,1.194,0.224,1.633,0.821
	c0.567,0.771,0.547,2.504,0.547,2.504s0.326,4.774-0.761,5.367c-0.746,0.406-1.769-0.424-3.967-4.221
	c-1.125-1.944-1.976-4.095-1.976-4.095s-0.164-0.401-0.456-0.617c-0.354-0.26-0.85-0.343-0.85-0.343l-5.26,0.034
	c0,0-0.79,0.022-1.08,0.366c-0.258,0.306-0.021,0.938-0.021,0.938s4.117,9.633,8.78,14.488
	C16.95,34.633,21.804,34.341,21.804,34.341L21.804,34.341z"/>
</svg>
